<svg width="94" height="94" viewBox="0 0 94 94" fill="none" xmlns="http://www.w3.org/2000/svg">
<mask id="mask0_0_119" style="mask-type:alpha" maskUnits="userSpaceOnUse" x="0" y="0" width="94" height="94">
<circle cx="47" cy="47" r="47" fill="#00EAC2"/>
</mask>
<g mask="url(#mask0_0_119)">
<path d="M0 3.91667C0 1.75355 1.75355 0 3.91667 0H90.0833C92.2465 0 94 1.75355 94 3.91667V90.0833C94 92.2465 92.2465 94 90.0833 94H3.91667C1.75355 94 0 92.2465 0 90.0833V3.91667Z" fill="#00EAC2"/>
<path d="M39.31 94C38.0099 94 36.9559 92.946 36.9559 91.6458V54.1888C36.9559 52.8886 35.9019 51.8346 34.6017 51.8346H31.5035C30.2033 51.8346 29.1493 50.7806 29.1493 49.4805V42.5535C29.1493 41.2534 30.2033 40.1994 31.5035 40.1994H34.6017C35.9019 40.1994 36.9559 39.1454 36.9559 37.8452V35.9232C36.9559 29.7906 38.7625 25.0338 42.3757 21.6526C45.989 18.2714 51.0607 16.5808 57.5911 16.5808C59.4674 16.5808 61.4871 16.7959 63.6503 17.2262C64.711 17.4371 65.4504 18.3843 65.4548 19.4658L65.4844 26.8084C65.4907 28.3805 63.9571 29.5884 62.3861 29.5277C62.062 29.5151 61.7233 29.5089 61.37 29.5089C56.2983 29.5089 53.7624 31.6967 53.7624 36.0723V37.8452C53.7624 39.1454 54.8164 40.1994 56.1165 40.1994H61.8998C63.2 40.1994 64.254 41.2534 64.254 42.5535V49.4805C64.254 50.7806 63.2 51.8346 61.8998 51.8346H56.1165C54.8164 51.8346 53.7624 52.8886 53.7624 54.1888V91.6458C53.7624 92.946 52.7084 94 51.4082 94H39.31Z" fill="#041F31"/>
</g>
</svg>
