<svg width="94" height="94" viewBox="0 0 94 94" fill="none" xmlns="http://www.w3.org/2000/svg">
<rect width="94" height="94" fill="#00DDE9"/>
<path d="M47 1.16327C21.0325 1.16327 0 22.2075 0 48.1633C0 68.9334 13.4655 86.5466 32.1363 92.7545C34.4863 93.1971 35.3479 91.744 35.3479 90.4946C35.3479 89.3783 35.3088 86.4213 35.2892 82.5046C22.2153 85.3403 19.458 76.1988 19.458 76.1988C17.3195 70.7742 14.2292 69.325 14.2292 69.325C9.97183 66.411 14.5583 66.4698 14.5583 66.4698C19.2778 66.7988 21.7571 71.3108 21.7571 71.3108C25.9479 78.4979 32.759 76.422 35.4458 75.2196C35.8688 72.1803 37.0791 70.1084 38.4225 68.9334C27.9846 67.7584 17.014 63.7164 17.014 45.7075C17.014 40.5767 18.8353 36.3859 21.8511 33.0959C21.3223 31.9091 19.7361 27.1308 22.2623 20.6565C22.2623 20.6565 26.1986 19.3954 35.1873 25.474C38.9473 24.4283 42.9423 23.9113 46.9373 23.8878C50.9323 23.9113 54.9273 24.4283 58.6873 25.474C67.6173 19.3954 71.5536 20.6565 71.5536 20.6565C74.0798 27.1308 72.4936 31.9091 72.0236 33.0959C75.0198 36.3859 76.8411 40.5767 76.8411 45.7075C76.8411 63.7634 65.8548 67.7388 55.3973 68.8942C57.0423 70.3042 58.5698 73.1868 58.5698 77.5892C58.5698 83.8793 58.5111 88.9319 58.5111 90.4594C58.5111 91.6931 59.3336 93.1619 61.7423 92.6919C80.5463 86.527 94 68.902 94 48.1633C94 22.2075 72.9558 1.16327 47 1.16327" fill="#041F31"/>
</svg>
