<svg width="94" height="94" viewBox="0 0 94 94" fill="none" xmlns="http://www.w3.org/2000/svg">
<path d="M47.0153 0C27.3933 0 21.6546 0.0202479 20.5391 0.11281C16.5123 0.447622 14.0066 1.08181 11.2768 2.44131C9.173 3.48625 7.51385 4.6975 5.87639 6.39543C2.89425 9.49191 1.0869 13.3014 0.43264 17.8297C0.114546 20.028 0.0220095 20.4764 0.00321307 31.7053C-0.00401634 35.4482 0.00321307 40.3742 0.00321307 46.9816C0.00321307 66.5931 0.0249013 72.3275 0.118884 73.4412C0.444207 77.3606 1.05871 79.8265 2.36 82.5238C4.84692 87.687 9.59664 91.563 15.1922 93.0093C17.1297 93.5083 19.2696 93.7831 22.0168 93.9132C23.1807 93.9638 35.0442 94 46.9149 94C58.7855 94 70.6562 93.9855 71.7913 93.9277C74.9722 93.778 76.8193 93.53 78.8616 93.0021C81.6361 92.2904 84.2219 90.9814 86.4383 89.1666C88.6547 87.3518 90.4483 85.0749 91.6938 82.4949C92.9698 79.8626 93.6169 77.3027 93.9096 73.588C93.9733 72.7781 94 59.865 94 46.9693C94 34.0714 93.9711 21.1822 93.9075 20.3722C93.6111 16.5975 92.964 14.0593 91.6468 11.3764C90.566 9.18024 89.366 7.54016 87.6237 5.8632C84.515 2.89255 80.7123 1.08471 76.1802 0.43099C73.9847 0.113533 73.5473 0.0195247 62.3128 0H47.0153Z" fill="#00DEE4"/>
<path d="M47.0153 0C27.3933 0 21.6546 0.0202479 20.5391 0.11281C16.5123 0.447622 14.0066 1.08181 11.2768 2.44131C9.173 3.48625 7.51385 4.6975 5.87639 6.39543C2.89425 9.49191 1.0869 13.3014 0.43264 17.8297C0.114546 20.028 0.0220095 20.4764 0.00321307 31.7053C-0.00401634 35.4482 0.00321307 40.3742 0.00321307 46.9816C0.00321307 66.5931 0.0249013 72.3275 0.118884 73.4412C0.444207 77.3606 1.05871 79.8265 2.36 82.5238C4.84692 87.687 9.59664 91.563 15.1922 93.0093C17.1297 93.5083 19.2696 93.7831 22.0168 93.9132C23.1807 93.9638 35.0442 94 46.9149 94C58.7855 94 70.6562 93.9855 71.7913 93.9277C74.9722 93.778 76.8193 93.53 78.8616 93.0021C81.6361 92.2904 84.2219 90.9814 86.4383 89.1666C88.6547 87.3518 90.4483 85.0749 91.6938 82.4949C92.9698 79.8626 93.6169 77.3027 93.9096 73.588C93.9733 72.7781 94 59.865 94 46.9693C94 34.0714 93.9711 21.1822 93.9075 20.3722C93.6111 16.5975 92.964 14.0593 91.6468 11.3764C90.566 9.18024 89.366 7.54016 87.6237 5.8632C84.515 2.89255 80.7123 1.08471 76.1802 0.43099C73.9847 0.113533 73.5473 0.0195247 62.3128 0H47.0153Z" fill="#00DEE4"/>
<path d="M46.9936 12.2934C37.5694 12.2934 36.3866 12.3346 32.6852 12.5031C28.991 12.6723 26.4693 13.2573 24.2629 14.1157C21.9806 15.0023 20.0446 16.1882 18.1158 18.1183C16.1855 20.0476 14.9999 21.9842 14.1107 24.2664C13.2504 26.4741 12.6648 28.9972 12.4985 32.691C12.3337 36.3934 12.2903 37.5772 12.2903 47.004C12.2903 56.4309 12.3322 57.6103 12.5 61.3128C12.6698 65.008 13.2547 67.5303 14.1121 69.7373C14.9992 72.0203 16.1848 73.9568 18.1143 75.8862C20.0424 77.8169 21.9784 79.0058 24.2593 79.8923C26.4672 80.7507 28.9895 81.3357 32.683 81.5049C36.3845 81.6734 37.5665 81.7147 46.99 81.7147C56.415 81.7147 57.5941 81.6734 61.2956 81.5049C64.9898 81.3357 67.5143 80.7507 69.7222 79.8923C72.0038 79.0058 73.9369 77.8169 75.865 75.8862C77.7953 73.9568 78.9809 72.0203 79.8701 69.738C80.7232 67.5303 81.3087 65.0073 81.4823 61.3135C81.6485 57.611 81.6919 56.4309 81.6919 47.004C81.6919 37.5772 81.6485 36.3941 81.4823 32.6917C81.3087 28.9964 80.7232 26.4741 79.8701 24.2671C78.9809 21.9842 77.7953 20.0476 75.865 18.1183C73.9348 16.1875 72.0045 15.0015 69.72 14.1157C67.5078 13.2573 64.9847 12.6723 61.2905 12.5031C57.5891 12.3346 56.4107 12.2934 46.9835 12.2934H46.9936ZM43.8806 18.5485C44.8046 18.5471 45.8355 18.5485 46.9936 18.5485C56.2588 18.5485 57.357 18.5818 61.0158 18.7481C64.3992 18.9029 66.2354 19.4684 67.4586 19.9435C69.078 20.5726 70.2326 21.3247 71.4464 22.5395C72.6609 23.7544 73.4128 24.9114 74.0432 26.5313C74.5182 27.7534 75.0842 29.5901 75.2382 32.9744C75.4045 36.6335 75.4406 37.7327 75.4406 46.9961C75.4406 56.2595 75.4045 57.3586 75.2382 61.0177C75.0835 64.402 74.5182 66.2388 74.0432 67.4609C73.4142 69.0807 72.6609 70.2341 71.4464 71.4483C70.2318 72.6631 69.0788 73.4152 67.4586 74.0443C66.2369 74.5216 64.3992 75.0856 61.0158 75.2404C57.3577 75.4067 56.2588 75.4429 46.9936 75.4429C37.7277 75.4429 36.6296 75.4067 32.9715 75.2404C29.5881 75.0842 27.7518 74.5187 26.5279 74.0436C24.9085 73.4145 23.7518 72.6624 22.5373 71.4475C21.3227 70.2327 20.5709 69.0785 19.9405 67.458C19.4655 66.2359 18.8994 64.3991 18.7454 61.0148C18.5792 57.3557 18.5459 56.2566 18.5459 46.9874C18.5459 37.7182 18.5792 36.6248 18.7454 32.9657C18.9001 29.5815 19.4655 27.7447 19.9405 26.5211C20.5694 24.9013 21.3227 23.7443 22.5373 22.5294C23.7518 21.3145 24.9085 20.5625 26.5279 19.9319C27.7511 19.4546 29.5881 18.8906 32.9715 18.7351C36.1727 18.5905 37.4132 18.5471 43.8806 18.5399V18.5485ZM65.5168 24.3119C64.6932 24.3119 63.888 24.5563 63.2032 25.014C62.5184 25.4718 61.9847 26.1224 61.6695 26.8836C61.3544 27.6448 61.272 28.4823 61.4328 29.2904C61.5936 30.0984 61.9903 30.8406 62.5728 31.423C63.1554 32.0055 63.8975 32.4021 64.7053 32.5626C65.5132 32.7232 66.3505 32.6405 67.1114 32.325C67.8722 32.0095 68.5225 31.4754 68.9799 30.7903C69.4373 30.1051 69.6813 29.2997 69.681 28.4758C69.681 26.1762 67.8158 24.3105 65.5168 24.3105V24.3119ZM46.9936 29.1787C37.1522 29.1787 29.1731 37.1599 29.1731 47.004C29.1731 56.8481 37.1522 64.8258 46.9936 64.8258C56.835 64.8258 64.812 56.8481 64.812 47.004C64.812 37.1599 56.8343 29.1787 46.9929 29.1787H46.9936ZM46.9936 35.4338C53.3815 35.4338 58.5607 40.6137 58.5607 47.004C58.5607 53.3937 53.3815 58.5742 46.9936 58.5742C40.605 58.5742 35.4266 53.3937 35.4266 47.004C35.4266 40.6137 40.605 35.4338 46.9936 35.4338Z" fill="#041F31"/>
</svg>
