<svg width="120" height="120" viewBox="0 0 120 120" fill="none" xmlns="http://www.w3.org/2000/svg">
<path d="M2.25482 0H117.745V120H2.25482V0Z" fill="#F7DF1E"/>
<path d="M32.62 100.28L41.4581 94.7229C43.1632 97.864 44.7142 100.522 48.4347 100.522C52.0009 100.522 54.2493 99.0722 54.2493 93.4341V55.0912H65.1025V93.5935C65.1025 105.274 58.5133 110.59 48.8999 110.59C40.2178 110.59 35.178 105.918 32.6198 100.279" fill="black"/>
<path d="M70.9998 99.0724L79.8369 93.756C82.1632 97.7034 85.1866 100.603 90.5355 100.603C95.0325 100.603 97.9001 98.2668 97.9001 95.0448C97.9001 91.1783 94.9544 89.8088 89.9927 87.5541L87.2801 86.3449C79.4497 82.8819 74.2554 78.5322 74.2554 69.3491C74.2554 60.8912 80.4572 54.4469 90.1481 54.4469C97.0479 54.4469 102.009 56.9442 105.575 63.469L97.1248 69.1072C95.2642 65.6438 93.2491 64.2747 90.1483 64.2747C86.9698 64.2747 84.954 66.369 84.954 69.1072C84.954 72.4905 86.9698 73.8602 91.6207 75.9547L94.3338 77.1629C103.559 81.2712 108.754 85.4594 108.754 94.8836C108.754 105.034 101.079 110.591 90.7683 110.591C80.6902 110.591 74.178 105.597 71 99.0724" fill="black"/>
</svg>
