<svg width="94" height="94" viewBox="0 0 94 94" fill="none" xmlns="http://www.w3.org/2000/svg">
<g clip-path="url(#clip0_0_134)">
<rect width="94" height="94" fill="#00DDE8"/>
<path d="M21.0409 94H1.55268V31.241H21.0409V94ZM11.2863 22.6801C5.0546 22.6801 0 17.5184 0 11.2865C4.46038e-08 8.29317 1.18909 5.42239 3.30568 3.30575C5.42227 1.18911 8.29298 0 11.2863 0C14.2796 0 17.1503 1.18911 19.2669 3.30575C21.3835 5.42239 22.5726 8.29317 22.5726 11.2865C22.5726 17.5184 17.5159 22.6801 11.2863 22.6801ZM93.979 94H74.5328V63.4493C74.5328 56.1683 74.3859 46.8311 64.4005 46.8311C54.2682 46.8311 52.7155 54.7415 52.7155 62.9247V94H33.2483V31.241H51.9392V39.8019H52.212C54.8138 34.871 61.1692 29.6673 70.6511 29.6673C90.3743 29.6673 94 42.6556 94 59.5256V94H93.979Z" fill="#041F31"/>
</g>
<defs>
<clipPath id="clip0_0_134">
<rect width="94" height="94" fill="white"/>
</clipPath>
</defs>
</svg>
