<svg width="94" height="94" viewBox="0 0 94 94" fill="none" xmlns="http://www.w3.org/2000/svg">
<g clip-path="url(#clip0_0_115)">
<rect width="94" height="94" fill="#00E2D9"/>
<path d="M21.4242 34.6625C21.4242 36.8824 21.97 38.9821 22.9376 40.827C22.0677 41.0297 21.3537 41.7931 21.3537 42.817C21.3537 47.0008 23.2797 50.7182 26.2898 53.1522C25.6707 53.7907 25.3718 54.7397 25.8205 55.8116C27.1405 58.9649 29.6409 61.4926 32.7693 62.8535C30.0487 64.1495 27.0019 64.8757 23.782 64.8757C23.741 64.8757 23.6999 64.8756 23.6588 64.8754C22.3409 64.8687 21.4545 65.7884 21.1633 66.7065C20.8633 67.6525 21.0853 69.0209 22.3587 69.7108C27.1216 72.2913 32.6 73.7508 38.399 73.7508C60.5502 73.7508 72.5993 55.3618 72.5993 39.5505V39.5371C72.5993 39.3798 72.5993 39.2166 72.5984 39.0504C74.076 37.8839 75.4226 36.549 76.6063 35.0785C77.4381 34.0451 77.2561 32.7611 76.6298 31.9564C76.3224 31.5615 75.8848 31.2459 75.3778 31.0821C75.5857 30.7336 75.7781 30.3745 75.9541 30.0057C76.4842 28.8951 76.114 27.7268 75.3422 27.0601C74.6057 26.4238 73.5025 26.2256 72.5203 26.7203C71.1523 27.4095 69.6963 27.9543 68.1702 28.3361C65.8144 26.2211 62.7007 24.9492 59.2905 24.9492C51.9579 24.9492 46.0052 30.9019 46.0052 38.2345C46.0052 38.3744 46.0072 38.5144 46.0113 38.6545C38.4127 37.6806 31.7029 33.8905 26.9418 28.3521C25.858 27.0912 23.6075 27.0948 22.7478 28.8779L24.5119 29.7283L22.7478 28.8779C21.906 30.6241 21.4242 32.5927 21.4242 34.6625ZM29.9423 53.4734L29.5624 54.3311L29.9423 53.4734ZM92.0417 47C92.0417 71.8859 71.8859 92.0417 47 92.0417C22.1141 92.0417 1.95833 71.8859 1.95833 47C1.95833 22.1141 22.1141 1.95833 47 1.95833C71.8859 1.95833 92.0417 22.1141 92.0417 47Z" stroke="#041F31" stroke-width="3.91667"/>
</g>
<defs>
<clipPath id="clip0_0_115">
<rect width="94" height="94" fill="white"/>
</clipPath>
</defs>
</svg>
